<?xml version="1.0" standalone="no"?>
<!DOCTYPE svg PUBLIC "-//W3C//DTD SVG 20010904//EN"
 "http://www.w3.org/TR/2001/REC-SVG-20010904/DTD/svg10.dtd">
<svg version="1.0" xmlns="http://www.w3.org/2000/svg"
 width="425.000000pt" height="425.000000pt" viewBox="0 0 425.000000 425.000000"
 preserveAspectRatio="xMidYMid meet">
<metadata>
Created by potrace 1.14, written by Peter Selinger 2001-2017
</metadata>
<g transform="translate(0.000000,425.000000) scale(0.100000,-0.100000)"
fill="#000000" stroke="none">
<path d="M1885 4194 c-856 -109 -1562 -740 -1766 -1579 -44 -185 -57 -305 -54
-525 2 -107 5 -204 8 -215 3 -11 8 -42 11 -70 25 -182 102 -423 195 -608 62
-122 175 -305 218 -352 10 -11 26 -30 34 -43 19 -27 156 -169 225 -233 198
-184 524 -366 793 -444 227 -65 339 -80 601 -80 221 0 278 5 440 41 629 140
1154 554 1431 1129 104 217 165 417 194 643 13 103 14 472 2 532 -3 14 -8 41
-11 60 -53 351 -209 700 -439 985 -298 369 -725 630 -1192 731 -179 39 -501
51 -690 28z m1805 -1412 c8 -12 31 -27 50 -34 44 -15 43 -15 83 -18 27 -2 24
-4 -23 -14 -98 -22 -126 -48 -136 -129 -7 -54 -17 -47 -29 18 -11 64 -52 98
-135 110 -57 8 -64 15 -17 15 50 0 112 27 131 56 9 13 21 47 28 76 l11 53 12
-55 c6 -30 17 -65 25 -78z m-2895 -343 c84 -15 97 -26 84 -75 -6 -21 -12 -44
-14 -51 -3 -8 -19 -5 -57 9 -80 32 -255 32 -319 0 -54 -26 -78 -67 -60 -101
20 -37 53 -47 186 -55 142 -9 223 -47 263 -126 104 -206 -176 -387 -415 -268
-64 32 -68 39 -44 93 l20 45 59 -30 c77 -39 150 -54 229 -46 104 10 169 56
158 112 -2 11 -4 22 -4 26 -2 16 -93 47 -166 58 -124 18 -209 47 -249 86 -93
91 -65 243 57 305 66 34 147 39 272 18z m2506 1 c30 -17 43 -51 139 -366 50
-165 93 -307 96 -316 5 -16 -2 -18 -49 -18 l-54 0 -33 113 c-42 140 -46 150
-70 142 -10 -3 -22 0 -26 6 -5 8 -2 10 8 7 46 -18 37 28 -58 325 -17 51 -39
61 -66 30 -29 -34 -54 -151 -60 -278 -3 -70 -3 -70 25 -73 15 -2 27 -7 27 -11
0 -4 -14 -5 -31 -3 l-32 5 5 -132 6 -131 -74 0 c-41 0 -74 3 -74 6 0 4 36 126
81 273 44 146 88 290 97 319 26 91 85 133 143 102z m409 -347 l0 -353 -52 0
-53 0 2 317 c1 175 2 334 2 354 l1 35 50 0 50 0 0 -353z m-2158 -180 l-4 -173
-51 0 -52 0 3 187 c2 104 0 198 -3 211 -3 13 -16 27 -28 31 -19 7 -17 9 18 15
22 4 56 15 75 24 l35 17 5 -70 c3 -38 3 -148 2 -242z m248 289 c15 -11 29 -35
34 -59 l9 -40 31 40 c71 93 187 112 241 39 18 -25 20 -46 23 -234 l3 -208 -53
0 -53 0 0 211 c0 207 0 211 -23 229 -42 34 -112 -4 -148 -79 -14 -29 -18 -67
-19 -196 l-1 -160 -52 -3 -52 -3 0 208 c0 114 -4 213 -8 219 -4 6 -17 16 -29
23 -30 16 -91 -15 -116 -59 -21 -36 -35 -34 -16 2 45 85 161 120 229 70z m532
-204 c-1 -123 -1 -231 -1 -240 -1 -15 -10 -18 -51 -18 l-50 0 -2 207 c-3 205
-3 208 -26 219 -22 11 -21 12 15 18 21 4 54 15 73 25 19 9 37 16 39 14 2 -1 3
-103 3 -225z m219 223 c28 -2 57 -39 74 -96 8 -31 13 -60 10 -65 -4 -6 -6 -80
-7 -165 l0 -155 -52 0 -51 0 -1 210 c0 234 -3 244 -64 242 -37 -1 -53 -13 -92
-66 -32 -45 -38 -31 -7 17 37 57 100 90 154 81 11 -1 27 -3 36 -3z m318 -11
c40 -21 50 -66 51 -221 1 -79 1 -168 1 -196 l-1 -53 -50 0 -50 0 0 63 c-1 34
-1 127 -1 205 0 138 -1 145 -24 168 -20 20 -28 22 -57 14 -18 -6 -34 -10 -35
-10 -2 0 -16 -19 -33 -42 -16 -22 -30 -35 -30 -28 0 25 53 82 92 100 43 19
102 19 137 0z m-1809 -200 c0 -199 1 -210 21 -228 33 -32 97 -9 135 48 13 19
24 28 24 21 0 -8 -11 -29 -25 -47 -67 -87 -198 -94 -241 -12 -14 27 -17 64
-18 218 -1 102 0 191 2 198 3 7 23 12 53 12 l49 0 0 -210z m292 198 c2 -7 4
-114 3 -238 l-1 -225 -52 -3 -52 -3 -2 63 c-1 35 -1 74 -1 88 0 14 1 94 2 178
l1 152 49 0 c30 0 50 -5 53 -12z m1888 -205 c0 -5 -11 -8 -25 -8 -14 0 -25 3
-25 8 0 4 11 7 25 7 14 0 25 -3 25 -7z m50 -1 c0 -4 -9 -8 -20 -9 -11 -1 -20
2 -20 5 0 4 9 8 20 9 11 1 20 -2 20 -5z"/>
</g>
</svg>
